<svg width="1200" height="900" viewBox="0 0 1200 900" fill="none" xmlns="http://www.w3.org/2000/svg">
  <rect width="1200" height="900" rx="48" fill="#0C0B0F"/>
  <rect width="1200" height="900" rx="48" fill="url(#bg)"/>
  <circle cx="222" cy="176" r="156" fill="#7B2FFF" fill-opacity="0.22"/>
  <circle cx="982" cy="148" r="126" fill="#F5C842" fill-opacity="0.24"/>
  <circle cx="930" cy="706" r="204" fill="#2DD4BF" fill-opacity="0.16"/>
  <rect x="106" y="110" width="988" height="680" rx="34" fill="#13111A" stroke="#F5EED8" stroke-opacity="0.16"/>
  <rect x="146" y="150" width="910" height="84" rx="24" fill="#1A1825"/>
  <rect x="176" y="176" width="220" height="32" rx="16" fill="#F5EED8" fill-opacity="0.1"/>
  <rect x="838" y="172" width="188" height="40" rx="20" fill="#7B2FFF"/>
  <rect x="146" y="274" width="340" height="376" rx="30" fill="#F5EED8"/>
  <rect x="524" y="274" width="260" height="176" rx="28" fill="#201E2D"/>
  <rect x="816" y="274" width="240" height="176" rx="28" fill="#201E2D"/>
  <rect x="524" y="474" width="532" height="176" rx="28" fill="#17131F"/>
  <rect x="176" y="578" width="156" height="18" rx="9" fill="#7B2FFF" fill-opacity="0.18"/>
  <rect x="176" y="612" width="248" height="18" rx="9" fill="#17131F" fill-opacity="0.16"/>
  <rect x="556" y="312" width="164" height="18" rx="9" fill="#F5EED8" fill-opacity="0.12"/>
  <rect x="556" y="346" width="132" height="78" rx="20" fill="#F5C842"/>
  <rect x="846" y="312" width="126" height="18" rx="9" fill="#F5EED8" fill-opacity="0.12"/>
  <rect x="846" y="346" width="114" height="18" rx="9" fill="#F5EED8" fill-opacity="0.12"/>
  <rect x="846" y="378" width="172" height="18" rx="9" fill="#F5EED8" fill-opacity="0.12"/>
  <rect x="556" y="514" width="160" height="18" rx="9" fill="#F5EED8" fill-opacity="0.12"/>
  <rect x="556" y="548" width="260" height="18" rx="9" fill="#F5EED8" fill-opacity="0.12"/>
  <rect x="556" y="582" width="410" height="18" rx="9" fill="#F5EED8" fill-opacity="0.12"/>
  <rect x="556" y="616" width="190" height="18" rx="9" fill="#F5EED8" fill-opacity="0.12"/>
  <text x="146" y="92" fill="#F5C842" font-family="Arial, sans-serif" font-size="26" font-weight="700" letter-spacing="4">TYRE JUNCTION</text>
  <text x="178" y="380" fill="#17131F" font-family="Arial, sans-serif" font-size="64" font-weight="700">Retail UI</text>
  <text x="178" y="448" fill="#17131F" fill-opacity="0.72" font-family="Arial, sans-serif" font-size="26">Discovery, filtering and conversion-focused product flow.</text>
  <defs>
    <linearGradient id="bg" x1="84" y1="52" x2="1044" y2="832" gradientUnits="userSpaceOnUse">
      <stop stop-color="#11101A"/>
      <stop offset="1" stop-color="#09080D"/>
    </linearGradient>
  </defs>
</svg>
