<svg width="1200" height="900" viewBox="0 0 1200 900" fill="none" xmlns="http://www.w3.org/2000/svg">
  <rect width="1200" height="900" rx="48" fill="#0C0B0F"/>
  <rect width="1200" height="900" rx="48" fill="url(#bg)"/>
  <circle cx="216" cy="174" r="148" fill="#F5C842" fill-opacity="0.18"/>
  <circle cx="1006" cy="174" r="148" fill="#2DD4BF" fill-opacity="0.16"/>
  <circle cx="920" cy="708" r="220" fill="#7B2FFF" fill-opacity="0.18"/>
  <rect x="116" y="114" width="968" height="672" rx="34" fill="#13111A" stroke="#F5EED8" stroke-opacity="0.16"/>
  <rect x="156" y="154" width="890" height="596" rx="30" fill="#17131F"/>
  <rect x="194" y="194" width="852" height="92" rx="26" fill="#201E2D"/>
  <rect x="194" y="324" width="274" height="388" rx="28" fill="#13111A"/>
  <rect x="500" y="324" width="546" height="176" rx="28" fill="#F5EED8"/>
  <rect x="500" y="536" width="260" height="176" rx="28" fill="#13111A"/>
  <rect x="786" y="536" width="260" height="176" rx="28" fill="#13111A"/>
  <rect x="228" y="230" width="224" height="20" rx="10" fill="#F5EED8" fill-opacity="0.12"/>
  <rect x="534" y="362" width="164" height="18" rx="9" fill="#17131F" fill-opacity="0.16"/>
  <rect x="534" y="396" width="210" height="78" rx="20" fill="#2DD4BF"/>
  <rect x="792" y="362" width="182" height="18" rx="9" fill="#17131F" fill-opacity="0.16"/>
  <rect x="792" y="396" width="200" height="18" rx="9" fill="#17131F" fill-opacity="0.16"/>
  <rect x="792" y="430" width="160" height="18" rx="9" fill="#17131F" fill-opacity="0.16"/>
  <rect x="228" y="362" width="110" height="110" rx="24" fill="#7B2FFF"/>
  <rect x="228" y="504" width="146" height="18" rx="9" fill="#F5EED8" fill-opacity="0.12"/>
  <rect x="228" y="538" width="180" height="18" rx="9" fill="#F5EED8" fill-opacity="0.12"/>
  <rect x="228" y="572" width="132" height="18" rx="9" fill="#F5EED8" fill-opacity="0.12"/>
  <rect x="534" y="572" width="162" height="18" rx="9" fill="#F5EED8" fill-opacity="0.12"/>
  <rect x="534" y="606" width="184" height="78" rx="20" fill="#F5C842"/>
  <rect x="820" y="572" width="152" height="18" rx="9" fill="#F5EED8" fill-opacity="0.12"/>
  <rect x="820" y="606" width="164" height="18" rx="9" fill="#F5EED8" fill-opacity="0.12"/>
  <rect x="820" y="640" width="132" height="18" rx="9" fill="#F5EED8" fill-opacity="0.12"/>
  <text x="156" y="96" fill="#F5C842" font-family="Arial, sans-serif" font-size="26" font-weight="700" letter-spacing="4">FLUX PAYMENTS</text>
  <text x="534" y="430" fill="#17131F" font-family="Arial, sans-serif" font-size="54" font-weight="700">Ops Dashboard</text>
  <text x="534" y="486" fill="#17131F" fill-opacity="0.72" font-family="Arial, sans-serif" font-size="24">Monitoring cross-border flows, approvals and settlement.</text>
  <defs>
    <linearGradient id="bg" x1="112" y1="62" x2="1090" y2="838" gradientUnits="userSpaceOnUse">
      <stop stop-color="#11101A"/>
      <stop offset="1" stop-color="#09080D"/>
    </linearGradient>
  </defs>
</svg>
